<?xml version="1.0" ?><!DOCTYPE svg  PUBLIC '-//W3C//DTD SVG 1.1//EN'  'http://www.w3.org/Graphics/SVG/1.1/DTD/svg11.dtd'><svg height="48px" style="enable-background:new 0 0 512 512;" version="1.1" viewBox="0 0 512 512" width="48pxpx" xml:space="preserve" xmlns="http://www.w3.org/2000/svg" xmlns:xlink="http://www.w3.org/1999/xlink"><g id="_x37_22_x2C__Book_x2C__business_x2C__education_x2C__notebook_x2C__school"><g><path d="M424.581,402.311v-9.802h-34.082v9.802H424.581z M424.581,440.445v-30.805    h-34.082v33.456c0,0.328,0.119,0.626,0.356,0.865c0.179,0.209,0.507,0.356,0.835,0.356h29.048c1.072,0,2.025-0.446,2.711-1.132    C424.164,442.472,424.581,441.52,424.581,440.445z M424.581,176.395v-19.307l-17.042-35.928l-17.04,35.928v19.307H424.581z     M75.383,385.896l0.06-0.09l0.089-0.119l0.03-0.03l0.03-0.059l0.09-0.12l0.06-0.087l0.06-0.09l0.06-0.061l0.03-0.059l0.058-0.09    l0.089-0.09l0.06-0.119l0.06-0.06v-0.03l0.089-0.089l0.06-0.12l0.089-0.089l0.06-0.089l0,0l0.149-0.209l0.089-0.09l0.06-0.088    v-0.029l0.09-0.09l0.06-0.09l0.089-0.09l0.06-0.119l0.09-0.089l0.089-0.09l0.06-0.089l0.088-0.12l0,0l0.06-0.089l0.089-0.09    l0.09-0.09l0.06-0.09l0.03-0.029l0.06-0.09l0.089-0.088l0.06-0.089l0.089-0.089l0.03-0.03l0.06-0.06l0.06-0.09l0.09-0.119    l0.089-0.09l0.03-0.029l0.03-0.061l0.089-0.089l0.09-0.089l0.089-0.09l0.028-0.061l0.03-0.029l0.09-0.09l0.089-0.089l0.089-0.12    l0.03-0.027l0.03-0.06l0.09-0.09l0.089-0.089l0.089-0.09l0.06-0.06l0.03-0.03l0.06-0.09l0.089-0.089l0.089-0.089l0.06-0.061    l0.03-0.029l0.089-0.09l0.089-0.09l0.06-0.089l0.088-0.09l0,0l0.089-0.089l0.09-0.09l0.089-0.088l0.089-0.06v-0.03l0.358-0.328    v-0.029l0.358-0.328l0,0l0.386-0.358l0,0l0.358-0.356l0,0l0.388-0.328l0,0l0.388-0.328l0,0l0.386-0.328l0,0l0.388-0.326l0,0    l0.388-0.328l0,0l0.386-0.299v-0.029l0.418-0.299l0,0l0.388-0.298l0,0l0.417-0.296l0,0l0.416-0.299l0,0l0.417-0.299l0,0    l0.417-0.298l0,0l0.416-0.267l0,0l0.417-0.299l0,0l0.448-0.268l0.416-0.27l0.447-0.238l0.417-0.267h0.03l0.416-0.238l0.447-0.269    l0,0l0.448-0.238l0.476-0.239l0,0l0.447-0.238l0,0l0.448-0.207l0,0l0.475-0.209l0,0l0.448-0.239l0.477-0.208l0.476-0.209l0,0    l0.478-0.179l0.477-0.209l0.476-0.178l0.478-0.179l0.477-0.179l0.476-0.149l0.03-0.03l0.478-0.148l0.477-0.149l0,0l0.505-0.149    l0.507-0.148l0.477-0.148l0.505-0.119l0,0l0.507-0.148l0.505-0.119l0.507-0.09l0.507-0.119l0.535-0.119l0.507-0.09l0.507-0.09    l0.535-0.09l0.507-0.059l0.535-0.09l0.507-0.06l0.537-0.06l0.535-0.03l0.537-0.058l0,0l0.535-0.03l0.537-0.03l0.537-0.029    l0.536-0.029h0.537h0.537h273.197V26.002H117.062c-11.469,0-21.897,4.678-29.434,12.244c-7.539,7.538-12.245,17.965-12.245,29.406    V385.896z M122.247,426.444c-1.997,0-3.666-1.64-3.666-3.666c0-2.024,1.669-3.664,3.666-3.664h261.102v-18.769H122.247    c-1.997,0-3.666-1.639-3.666-3.666c0-2.024,1.669-3.664,3.666-3.664h261.102v-18.232H110.151c-9.565,0-18.264,3.902-24.551,10.189    c-6.315,6.314-10.218,15.016-10.218,24.578c0,9.563,3.902,18.234,10.218,24.549c6.287,6.286,14.985,10.219,24.551,10.219h0.088    h273.109v-17.874H122.247z M145.067,88.299h191.148c2.026,0,3.665,1.637,3.665,3.664v143.182c0,2.027-1.639,3.666-3.665,3.666    H145.067c-2.027,0-3.664-1.639-3.664-3.666V91.963C141.403,89.936,143.041,88.299,145.067,88.299z M160.59,269.02    c-2.027,0-3.666-1.639-3.666-3.665c0-1.995,1.639-3.664,3.666-3.664h160.135c2.025,0,3.664,1.669,3.664,3.664    c0,2.026-1.639,3.665-3.664,3.665H160.59z M160.59,290.799c-2.027,0-3.666-1.639-3.666-3.666c0-2.025,1.639-3.664,3.666-3.664    h160.135c2.025,0,3.664,1.639,3.664,3.664c0,2.027-1.639,3.666-3.664,3.666H160.59z M160.59,312.576    c-2.027,0-3.666-1.639-3.666-3.665c0-2.025,1.639-3.664,3.666-3.664h160.135c2.025,0,3.664,1.639,3.664,3.664    c0,2.026-1.639,3.665-3.664,3.665H160.59z M148.731,231.48h183.82V95.627h-183.82C148.731,194.419,148.731,41.494,148.731,231.48z     M111.699,96.907c0,1.4,0.895,2.831,2.056,3.308c2.443,1.222,5.273-0.656,5.273-3.308V89.58c0-1.371-0.894-2.831-2.055-3.278    c-2.444-1.222-5.274,0.626-5.274,3.278V96.907z M111.699,126.194c0,1.37,0.895,2.83,2.056,3.276    c2.443,1.223,5.273-0.625,5.273-3.276v-7.33c0-1.37-0.894-2.83-2.055-3.276c-2.444-1.223-5.274,0.625-5.274,3.276V126.194z     M111.699,155.479c0,1.371,0.895,2.831,2.056,3.278c2.443,1.222,5.273-0.624,5.273-3.278v-7.327c0-1.37-0.894-2.831-2.055-3.278    c-2.444-1.221-5.274,0.627-5.274,3.278V155.479z M111.699,184.766c0,1.371,0.895,2.83,2.056,3.278    c2.443,1.222,5.273-0.626,5.273-3.278v-7.329c0-1.37-0.894-2.831-2.055-3.276c-2.444-1.221-5.274,0.625-5.274,3.276V184.766z     M111.699,214.053c0,1.371,0.895,2.801,2.056,3.275c2.443,1.223,5.273-0.654,5.273-3.275v-7.33c0-1.4-0.894-2.83-2.055-3.307    c-2.444-1.223-5.274,0.656-5.274,3.307V214.053z M111.699,243.309c0,1.399,0.895,2.83,2.056,3.307    c2.443,1.222,5.273-0.656,5.273-3.307v-7.299c0-1.4-0.894-2.83-2.055-3.308c-2.444-1.222-5.274,0.656-5.274,3.308V243.309z     M111.699,272.595c0,1.4,0.895,2.83,2.056,3.308c2.443,1.221,5.273-0.656,5.273-3.308v-7.329c0-1.371-0.894-2.801-2.055-3.277    c-2.444-1.221-5.274,0.655-5.274,3.277V272.595z M111.699,301.881c0,1.4,0.895,2.829,2.056,3.307    c2.443,1.191,5.273-0.654,5.273-3.307v-7.329c0-1.37-0.894-2.83-2.055-3.278c-2.444-1.221-5.274,0.627-5.274,3.278V301.881z     M111.699,331.166c0,1.371,0.895,2.831,2.056,3.278c2.443,1.222,5.273-0.626,5.273-3.278v-7.329c0-1.37-0.894-2.829-2.055-3.276    c-2.444-1.221-5.274,0.625-5.274,3.276V331.166z M111.699,360.453c0,1.371,0.895,2.83,2.056,3.276    c2.443,1.222,5.273-0.625,5.273-3.276v-7.33c0-1.37-0.894-2.83-2.055-3.277c-2.444-1.221-5.274,0.627-5.274,3.277V360.453z     M119.029,60.322c0-1.4-0.894-2.83-2.055-3.308c-2.444-1.222-5.274,0.656-5.274,3.308v7.3c0,1.4,0.895,2.831,2.056,3.306    c2.443,1.222,5.273-0.654,5.273-3.306V60.322z M160.172,117.106H321.32v42.901H160.172V117.106z M55.244,468.48    c-2.027,0-3.666-1.639-3.666-3.663c0-2.027,1.639-3.666,3.666-3.666h287.735c2.027,0,3.666,1.639,3.666,3.666    c0,2.024-1.639,3.663-3.666,3.663H55.244z M223.721,485.999c-2.027,0-3.666-1.669-3.666-3.664c0-2.027,1.639-3.666,3.666-3.666    h199.133c1.996,0,3.663,1.639,3.663,3.666c0,1.995-1.667,3.664-3.663,3.664H223.721z M443.231,485.999    c-2.025,0-3.664-1.669-3.664-3.664c0-2.027,1.639-3.666,3.664-3.666h24.877c2.026,0,3.664,1.639,3.664,3.666    c0,1.995-1.638,3.664-3.664,3.664H443.231z M43.892,485.462c-2.027,0-3.664-1.638-3.664-3.664c0-2.025,1.637-3.664,3.664-3.664    h94.353c2.026,0,3.664,1.639,3.664,3.664c0,2.026-1.637,3.664-3.664,3.664H43.892z M411.205,366.145    c0,2.024-1.639,3.663-3.666,3.663c-2.024,0-3.664-1.639-3.664-3.663V183.693h-13.376v201.518h34.082V183.693h-13.376V366.145z" style="fill-rule:evenodd;clip-rule:evenodd;"/></g></g><g id="Layer_1"/></svg>