<?xml version="1.0" ?><svg width="48px" height="48px" viewBox="0 0 37.3 47.82" xmlns="http://www.w3.org/2000/svg"><defs><style>.cls-1{fill:#2d2626;}</style></defs><g data-name="Layer 2" id="Layer_2"><g data-name="Layer 1" id="Layer_1-2"><g id="juick"><path class="cls-1" d="M29.29,0a8,8,0,0,0-7.76,6H1.34A1.35,1.35,0,0,0,.22,8.06l14,21.72V45.14H9.31a1.34,1.34,0,0,0,0,2.68H20.85a1.34,1.34,0,0,0,0-2.68h-4c0-.08,0-15.3,0-15.36l9.27-14.4A8,8,0,1,0,29.29,0ZM22.65,8.68h4.61L23.82,14H7.25L3.8,8.68Z"/></g></g></g></svg>